<svg width="466" height="304" viewBox="0 0 466 304" fill="none" xmlns="http://www.w3.org/2000/svg">
<path d="M236.072 85.4423C231.917 78.6909 226.993 71.4824 219.282 69.2778C210.353 66.7248 201.18 71.7964 193.399 76.8011C170.13 91.7683 147.722 107.989 126.276 125.388L126.3 125.65C142.996 124.518 159.692 123.387 176.388 122.256C188.451 121.439 200.928 120.509 211.588 114.903C215.633 112.775 219.576 109.934 224.16 109.736C229.855 109.49 234.821 113.397 238.723 117.48C261.807 141.629 268.487 178.559 294.385 199.776C278.054 160.21 258.556 121.979 236.072 85.4423Z" fill="#F2F2F2"/>
<path d="M377.964 290.272C375.411 287.105 374.368 286.363 371.85 283.167C351.348 257.116 332.077 230.185 314.038 202.374C301.785 183.486 290.14 164.235 279.103 144.621C273.848 135.297 268.737 125.899 263.771 116.428C259.917 109.085 256.149 101.697 252.467 94.2658C251.414 92.1433 250.391 90.011 249.373 87.8738C246.974 82.848 244.619 77.7978 242.091 72.8404C239.211 67.19 235.704 61.2664 230.415 57.4702C228.007 55.6717 225.129 54.5835 222.115 54.3328C217.809 54.0595 213.836 55.8064 210.101 57.7142C182.775 71.7132 157.192 89.2645 134.052 109.236C110.853 129.252 90.1171 151.866 72.2667 176.616C71.7206 177.382 70.4292 176.65 70.9804 175.879C73.1509 172.863 75.3644 169.88 77.6209 166.93C105.679 130.269 140.082 98.7426 179.258 73.7918C185.849 69.5956 192.564 65.5961 199.403 61.7934C202.85 59.8758 206.312 57.9826 209.833 56.2065C213.285 54.4645 216.95 52.8982 220.894 52.8397C234.314 52.6348 241.262 67.5657 246.035 77.6124C247.535 80.7743 249.053 83.9264 250.589 87.0687C256.395 98.9988 262.425 110.82 268.678 122.532C272.537 129.764 276.48 136.953 280.508 144.099C293.044 166.354 306.368 188.159 320.48 209.513C339.175 237.798 357.72 262.786 379.017 289.237C379.603 289.969 378.555 291.013 377.964 290.272Z" fill="#E4E4E4"/>
<path d="M132.726 101.863C131.946 101.009 131.171 100.155 130.386 99.3014C124.198 92.5776 117.558 85.9318 109.06 82.0771C105.008 80.1811 100.584 79.1738 96.0966 79.125C91.4579 79.1397 86.9234 80.3351 82.6372 82.0088C80.6108 82.8041 78.629 83.7068 76.6773 84.668C74.4471 85.7708 72.2568 86.9468 70.0766 88.1324C65.9839 90.3575 61.9444 92.68 57.958 95.1002C50.0262 99.9162 42.3427 105.1 34.9077 110.651C31.0535 113.53 27.2788 116.503 23.5836 119.57C20.1467 122.42 16.7794 125.346 13.4815 128.348C12.7763 128.988 11.7233 127.953 12.4285 127.314C13.2977 126.519 14.1768 125.728 15.0559 124.948C17.5392 122.742 20.0623 120.579 22.6252 118.458C27.2987 114.584 32.0931 110.859 37.0086 107.284C44.6523 101.722 52.5592 96.5364 60.7292 91.7286C64.8119 89.3279 68.9507 87.0281 73.1458 84.8291C74.4124 84.1655 75.6939 83.5165 76.9901 82.9017C79.9314 81.4442 82.9875 80.222 86.1287 79.247C90.5784 77.8328 95.2863 77.3785 99.931 77.915C104.416 78.5558 108.736 80.0243 112.666 82.243C121.009 86.8248 127.481 93.9096 133.779 100.824C134.415 101.526 133.366 102.566 132.726 101.863Z" fill="#E4E4E4"/>
<path d="M303.689 171.54L333.611 160.788C336.844 159.626 340.069 158.304 343.411 157.472C346.316 156.657 349.4 156.696 352.282 157.583C354.853 158.518 357.206 159.951 359.201 161.797C361.24 163.641 363.137 165.631 364.876 167.751C367.038 170.303 369.167 172.881 371.306 175.451C380.134 186.058 388.904 196.71 397.616 207.409C406.328 218.107 414.982 228.851 423.578 239.64C432.195 250.456 440.752 261.317 449.251 272.223C450.292 273.559 451.332 274.896 452.371 276.233C452.945 276.972 454.24 276.244 453.658 275.495C445.097 264.479 436.476 253.508 427.796 242.582C419.094 231.631 410.333 220.725 401.511 209.866C392.689 199.008 383.808 188.196 374.867 177.432C372.639 174.75 370.408 172.071 368.173 169.395C366.288 167.138 364.424 164.857 362.357 162.756C358.561 158.9 353.82 155.492 348.144 155.399C344.806 155.345 341.577 156.385 338.476 157.487C335.134 158.675 331.799 159.885 328.461 161.085L303.293 170.128C302.4 170.449 302.786 171.864 303.689 171.54Z" fill="#E4E4E4"/>
<path d="M106.428 90.5377C96.2679 85.4074 83.2559 86.4122 73.9191 92.8217C91.7284 95.8403 109.343 99.8792 126.672 104.918C119.476 100.775 113.847 94.2834 106.428 90.5377Z" fill="#F2F2F2"/>
<path d="M73.8191 92.8041L71.863 94.3661C72.5247 93.8193 73.2125 93.3068 73.9191 92.8217C73.8857 92.8161 73.8524 92.8097 73.8191 92.8041Z" fill="#F2F2F2"/>
<path d="M358.448 171.612C356.48 169.258 354.352 166.793 351.408 165.837L348.66 165.944C369.582 202.265 397.839 234.002 431.697 259.207C407.28 230.009 382.864 200.81 358.448 171.612Z" fill="#F2F2F2"/>
<path d="M187.536 152.195C188.808 156.735 191.673 160.686 195.625 163.351C197.153 164.373 198.961 165.353 199.484 167.095C199.759 168.205 199.589 169.377 199.01 170.368C198.433 171.347 197.73 172.249 196.919 173.052L196.844 173.324C193.053 171.117 189.446 168.324 187.351 164.514C185.257 160.705 184.964 155.711 187.536 152.195Z" fill="#F2F2F2"/>
<path d="M313.77 260.244C315.042 264.784 317.908 268.736 321.86 271.4C323.388 272.422 325.195 273.402 325.718 275.144C325.993 276.254 325.823 277.426 325.245 278.417C324.667 279.396 323.964 280.298 323.153 281.101L323.079 281.373C319.287 279.166 315.68 276.373 313.585 272.564C311.491 268.754 311.199 263.761 313.77 260.244Z" fill="#F2F2F2"/>
<path d="M61.8437 252.792C63.1156 257.332 65.981 261.284 69.933 263.948C71.4609 264.97 73.2686 265.95 73.7913 267.692C74.0663 268.803 73.8969 269.974 73.318 270.966C72.7402 271.944 72.0372 272.846 71.2261 273.649L71.1521 273.921C67.3605 271.714 63.7533 268.922 61.6589 265.112C59.5644 261.302 59.272 256.309 61.8437 252.792Z" fill="#F2F2F2"/>
<path d="M351.749 54.2907C367.009 54.2907 379.379 42.1373 379.379 27.1453C379.379 12.1534 367.009 0 351.749 0C336.489 0 324.118 12.1534 324.118 27.1453C324.118 42.1373 336.489 54.2907 351.749 54.2907Z" fill="#00CCFF"/>
<path d="M401.611 6.31815C388.22 4.53989 372.932 11.6507 369.461 24.4808C368.587 22.1996 366.997 20.2506 364.921 18.9155C362.845 17.5803 360.39 16.9281 357.912 17.053C355.434 17.1779 353.061 18.0735 351.135 19.6105C349.209 21.1474 347.83 23.246 347.198 25.6032L348.731 26.6819C377.428 32.7786 407.133 32.6466 435.772 26.2953C426.458 16.6779 415.002 8.09637 401.611 6.31815Z" fill="#F0F0F0"/>
<path d="M344.183 42.5119C330.792 40.7337 315.504 47.8445 312.033 60.6746C311.158 58.3934 309.568 56.4444 307.492 55.1092C305.416 53.7741 302.962 53.1218 300.484 53.2468C298.006 53.3717 295.633 54.2673 293.707 55.8042C291.781 57.3411 290.402 59.4398 289.769 61.7969L291.303 62.8757C319.999 68.9723 349.705 68.8404 378.344 62.489C369.029 52.8716 357.574 44.2901 344.183 42.5119Z" fill="#F0F0F0"/>
<path d="M461.059 49.3557C461.003 49.3558 460.948 49.3473 460.895 49.3307C317.646 4.82399 191.391 10.644 110.701 23.3637C99.7201 25.0941 88.7097 27.0927 77.9758 29.3044C75.2354 29.8683 72.3924 30.4728 69.5258 31.1023C66.1024 31.8513 62.7245 32.6227 59.4855 33.3941C58.0866 33.7194 56.7151 34.0474 55.3708 34.378C53.3347 34.8718 51.2686 35.3864 49.0539 35.9519C46.5791 36.5788 44.0647 37.2363 41.5788 37.9063C41.5697 37.9094 41.5604 37.912 41.551 37.9141C38.7432 38.6672 35.9504 39.4428 33.2495 40.2168C31.7876 40.6316 30.376 41.0406 29.024 41.4445C28.8729 41.4856 28.7391 41.5251 28.6034 41.5656L28.3129 41.6524C28.1446 41.7028 27.9785 41.7522 27.8124 41.799L27.8018 41.8021L27.3624 41.9368C26.8381 42.0927 26.3265 42.245 25.8233 42.3968C12.5254 46.4241 5.21512 49.2892 5.1429 49.3172C5.07686 49.3432 5.00625 49.3562 4.93511 49.3554C4.86397 49.3546 4.79368 49.34 4.72826 49.3125C4.66285 49.2851 4.60358 49.2452 4.55385 49.1952C4.50412 49.1452 4.4649 49.0861 4.43843 49.0212C4.41196 48.9563 4.39876 48.8869 4.39957 48.8171C4.40039 48.7472 4.41521 48.6781 4.44319 48.6138C4.47117 48.5496 4.51175 48.4914 4.56264 48.4425C4.61352 48.3936 4.6737 48.3551 4.73974 48.3291C4.81249 48.301 12.1585 45.4214 25.5048 41.379C26.0098 41.2267 26.5228 41.0744 27.0487 40.918L27.4571 40.7932C27.4711 40.788 27.4851 40.7839 27.4994 40.7797C27.6648 40.7335 27.8298 40.6841 27.9976 40.6342L28.2886 40.5474C28.4335 40.5042 28.5764 40.4616 28.7227 40.4221C30.0655 40.0208 31.4818 39.6107 32.9474 39.1944C35.6494 38.4199 38.445 37.6449 41.255 36.8907C41.2637 36.8876 41.2727 36.8855 41.2814 36.8829C43.7761 36.2108 46.2998 35.5501 48.7825 34.9212C51.0006 34.3552 53.0706 33.8395 55.1103 33.3447C56.4602 33.0146 57.8344 32.6859 59.2329 32.3587C62.4756 31.5863 65.8604 30.8138 69.2899 30.0633C72.1609 29.4333 75.0087 28.8272 77.7536 28.2627C88.5042 26.0474 99.5318 24.0457 110.53 22.3127C191.335 9.57485 317.771 3.74542 461.222 48.3161C461.345 48.3543 461.451 48.4347 461.519 48.5426C461.587 48.6505 461.614 48.7789 461.594 48.9045C461.575 49.0301 461.51 49.1446 461.412 49.2274C461.313 49.3101 461.188 49.3556 461.059 49.3557Z" fill="#CCCCCC"/>
<path d="M142.481 223.465C142.294 222.926 141.978 222.439 141.56 222.043C141.406 221.903 141.239 221.776 141.062 221.666C139.648 220.739 137.535 220.532 136.191 221.666C136.056 221.781 135.931 221.907 135.818 222.043C135.417 222.528 135.005 223.002 134.582 223.465C133.889 224.242 133.179 224.992 132.437 225.721C132.226 225.924 132.014 226.131 131.798 226.333C131.673 226.456 131.548 226.573 131.424 226.69C130.947 227.137 130.459 227.568 129.966 227.994C129.706 228.223 129.446 228.447 129.181 228.665C128.785 228.989 128.39 229.314 127.989 229.628C127.951 229.655 127.913 229.681 127.875 229.713C127.864 229.719 127.859 229.729 127.848 229.735C127.843 229.735 127.837 229.735 127.832 229.745C127.817 229.751 127.804 229.76 127.794 229.772C127.675 229.852 127.593 229.905 127.534 229.953C127.555 229.942 127.577 229.926 127.599 229.916C127.501 229.99 127.398 230.065 127.301 230.139C126.353 230.826 125.383 231.486 124.391 232.103C121.939 233.646 119.362 234.99 116.687 236.122C116.509 236.191 116.324 236.265 116.14 236.335C109.138 239.153 101.541 240.253 94.0086 239.539C93.2393 239.48 92.4699 239.401 91.7006 239.299C90.8121 239.172 89.929 239.017 89.0513 238.842C85.71 238.187 82.4406 237.217 79.2885 235.946C75.3455 234.172 71.5954 232.011 68.0954 229.495C67.5536 229.117 67.0064 228.739 66.4592 228.372C67.0822 226.871 67.6945 225.37 68.2904 223.858C68.5884 223.129 68.8755 222.4 69.1573 221.666C71.3731 216.008 73.4536 210.296 75.4473 204.564C77.4627 198.757 79.3643 192.916 81.1522 187.042C81.3364 186.446 81.5152 185.85 81.6886 185.254C82.6259 182.15 83.5252 179.04 84.3866 175.923C84.4679 175.62 84.5546 175.322 84.6304 175.018C84.8796 174.124 85.1234 173.23 85.3618 172.336C85.9036 170.318 84.6792 167.907 82.5229 167.423C81.4847 167.161 80.3838 167.306 79.452 167.826C78.5202 168.346 77.8303 169.202 77.5277 170.212C77.2948 171.074 77.0618 171.931 76.8234 172.793C75.6803 176.961 74.4775 181.114 73.2152 185.254C73.031 185.85 72.8468 186.446 72.6626 187.042C69.8778 196.058 66.8204 204.984 63.4903 213.82C63.0893 214.89 62.683 215.956 62.2713 217.019C62.0708 217.541 61.8703 218.062 61.6645 218.584C61.269 219.611 60.8626 220.638 60.4563 221.666C60.2233 222.267 59.9849 222.868 59.7466 223.465C59.5895 223.843 59.4378 224.22 59.2861 224.593C57.7414 224.048 56.1409 223.67 54.513 223.465L54.253 223.433C52.9908 223.283 51.7144 223.294 50.4551 223.465C48.5703 223.681 46.7568 224.301 45.1428 225.281C43.5288 226.262 42.1538 227.579 41.1148 229.139C38.5306 233.136 38.5631 238.852 42.1876 242.248C45.9204 245.745 51.5712 245.718 55.965 243.531C58.2934 242.293 60.2567 240.485 61.6645 238.283C62.2038 237.484 62.6993 236.658 63.1489 235.808C63.2627 235.882 63.3765 235.957 63.4903 236.037C63.9237 236.335 64.3571 236.638 64.7851 236.936C67.2789 238.711 69.9069 240.297 72.6463 241.679C78.5365 244.555 84.8769 246.439 91.4027 247.251C91.5489 247.267 91.6898 247.289 91.8361 247.305C92.5566 247.395 93.2826 247.464 94.0086 247.523C104.423 248.294 114.85 246.2 124.121 241.476C124.906 241.077 125.685 240.658 126.456 240.22C127.653 239.539 128.823 238.815 129.966 238.049C130.589 237.633 131.196 237.213 131.798 236.771C134.426 234.87 136.875 232.741 139.117 230.411C139.968 229.532 140.782 228.626 141.56 227.691C142.296 226.926 142.721 225.922 142.752 224.87C142.748 224.389 142.656 223.913 142.481 223.465ZM52.7685 236.143C52.8823 236.063 52.996 235.978 53.1044 235.893C53.0719 235.973 52.9147 236.063 52.7685 236.143ZM54.5076 234.424C54.383 234.562 54.2692 234.701 54.1446 234.839C53.7655 235.256 53.3582 235.647 52.9256 236.01C52.866 236.063 52.801 236.116 52.736 236.164C52.7353 236.164 52.7345 236.164 52.7339 236.165C52.7332 236.165 52.7326 236.165 52.7321 236.166C52.7316 236.166 52.7312 236.167 52.7309 236.168C52.7307 236.168 52.7305 236.169 52.7306 236.17C52.6523 236.204 52.5763 236.243 52.503 236.287C52.27 236.425 52.0316 236.553 51.7879 236.67C51.3105 236.843 50.8194 236.976 50.3197 237.069C49.9356 237.097 49.5502 237.1 49.1657 237.08H49.1548C48.8895 237.022 48.6273 236.951 48.3693 236.867C48.2392 236.803 48.1146 236.729 47.99 236.654C47.9412 236.611 47.8979 236.569 47.8708 236.542C47.8179 236.495 47.769 236.443 47.7246 236.388C47.7246 236.387 47.7244 236.386 47.7242 236.386C47.7239 236.385 47.7235 236.385 47.723 236.384C47.7225 236.384 47.7219 236.383 47.7212 236.383C47.7206 236.383 47.7199 236.383 47.7191 236.383C47.6595 236.276 47.5945 236.17 47.5349 236.063C47.5319 236.06 47.5299 236.057 47.5295 236.053C47.4862 235.92 47.4483 235.781 47.4158 235.643C47.404 235.4 47.4058 235.156 47.4212 234.914C47.4939 234.573 47.5916 234.239 47.7137 233.913C47.8234 233.682 47.9483 233.458 48.0876 233.242C48.0984 233.221 48.1526 233.136 48.2122 233.04C48.2176 233.035 48.2176 233.035 48.2176 233.029C48.2988 232.939 48.3801 232.843 48.4668 232.758C48.6131 232.598 48.7702 232.46 48.9273 232.316C49.2329 232.12 49.5494 231.94 49.8754 231.779C50.3926 231.598 50.9234 231.457 51.4628 231.358C52.2583 231.296 53.0579 231.303 53.8521 231.379C54.6043 231.508 55.3465 231.687 56.0733 231.917C55.6328 232.757 55.1313 233.564 54.5726 234.333C54.5509 234.365 54.5293 234.397 54.5076 234.424ZM48.483 232.673C48.4353 232.748 48.3789 232.818 48.3151 232.88C48.3581 232.802 48.4149 232.732 48.483 232.673Z" fill="#3F3D56"/>
<path d="M126.196 169.105C126.147 170.776 126.098 172.447 126.049 174.119C125.946 177.829 125.84 181.54 125.73 185.254C125.616 189.432 125.497 193.608 125.372 197.783C125.313 199.939 125.251 202.094 125.188 204.25C125.02 210.057 124.854 215.862 124.689 221.666C124.673 222.267 124.652 222.863 124.635 223.465C124.554 226.344 124.473 229.224 124.391 232.103C124.299 235.228 124.209 238.352 124.121 241.476C124.056 243.818 123.989 246.162 123.92 248.507C123.433 265.503 122.945 282.498 122.457 299.493C122.437 300.545 122.002 301.549 121.244 302.293C120.487 303.037 119.465 303.465 118.394 303.485C117.319 303.476 116.291 303.053 115.53 302.306C114.77 301.559 114.339 300.549 114.331 299.493C114.602 289.933 114.876 280.374 115.154 270.815C115.398 262.171 115.645 253.527 115.896 244.883C115.978 242.035 116.059 239.186 116.14 236.335C116.265 232.045 116.388 227.755 116.509 223.465C116.525 222.863 116.547 222.267 116.563 221.666C116.574 221.139 116.59 220.617 116.606 220.09C116.845 211.76 117.083 203.429 117.321 195.095C117.419 191.816 117.513 188.536 117.603 185.254C117.711 181.512 117.82 177.772 117.928 174.033C117.977 172.389 118.02 170.749 118.069 169.105C118.09 168.052 118.524 167.049 119.282 166.304C120.039 165.56 121.061 165.133 122.132 165.113C123.207 165.121 124.236 165.545 124.996 166.291C125.756 167.038 126.187 168.049 126.196 169.105Z" fill="#3F3D56"/>
<path d="M349.098 170.212C344.837 186.063 339.745 201.687 333.841 217.02C332.212 221.25 330.545 225.471 328.764 229.641L329.173 228.688C328.378 230.674 327.363 232.568 326.145 234.336C326.062 234.45 325.978 234.563 325.892 234.675C326.313 234.146 326.393 234.041 326.132 234.361C325.995 234.521 325.859 234.682 325.716 234.838C325.337 235.255 324.93 235.646 324.498 236.01C324.389 236.102 324.279 236.191 324.166 236.279L324.674 235.891C324.616 236.027 324.202 236.209 324.073 236.286C323.655 236.534 323.22 236.75 322.77 236.935L323.741 236.532C323.003 236.824 322.234 237.031 321.448 237.15L322.528 237.007C321.756 237.112 320.974 237.121 320.2 237.032L321.28 237.175C320.647 237.089 320.027 236.925 319.435 236.686L320.406 237.089C320.09 236.954 319.786 236.794 319.496 236.612C319.349 236.518 318.898 236.182 319.488 236.625C320.102 237.086 319.567 236.665 319.441 236.542C319.336 236.44 319.241 236.329 319.138 236.225C318.66 235.744 319.677 237.054 319.353 236.491C319.179 236.209 319.02 235.918 318.877 235.62L319.286 236.573C319.1 236.119 318.968 235.646 318.892 235.162L319.037 236.223C318.96 235.621 318.959 235.013 319.035 234.411L318.89 235.472C318.99 234.8 319.171 234.143 319.429 233.513L319.02 234.467C319.2 234.044 319.413 233.635 319.658 233.244C319.771 233.041 319.903 232.85 320.053 232.673C320.079 232.682 319.365 233.478 319.744 233.076C319.843 232.971 319.936 232.86 320.036 232.756C320.197 232.589 320.369 232.436 320.538 232.278C321.104 231.749 319.746 232.792 320.399 232.373C320.872 232.067 321.37 231.801 321.888 231.575L320.917 231.978C321.785 231.628 322.694 231.388 323.624 231.264L322.544 231.407C323.707 231.275 324.884 231.289 326.044 231.448L324.964 231.305C326.433 231.524 327.869 231.921 329.239 232.487L328.269 232.084C331.189 233.316 333.775 235.144 336.356 236.937C338.85 238.711 341.477 240.296 344.215 241.678C350.106 244.555 356.447 246.44 362.973 247.253C372.332 248.379 381.83 247.178 390.594 243.76C399.358 240.343 407.109 234.817 413.134 227.691C413.869 226.925 414.292 225.921 414.324 224.868C414.316 223.811 413.889 222.799 413.134 222.046C411.643 220.701 408.827 220.322 407.387 222.046C406.023 223.682 404.556 225.233 402.995 226.691C402.267 227.37 401.519 228.028 400.751 228.665C400.313 229.029 399.868 229.386 399.418 229.736C399.205 229.901 398.541 230.342 399.56 229.631C399.327 229.794 399.103 229.972 398.872 230.139C395.46 232.61 391.762 234.676 387.856 236.294L388.827 235.892C384.636 237.619 380.234 238.804 375.732 239.417L376.812 239.274C372.18 239.873 367.489 239.866 362.859 239.254L363.939 239.397C359.311 238.772 354.784 237.561 350.472 235.793L351.443 236.195C347.282 234.387 343.334 232.14 339.667 229.494C337.758 228.105 335.746 226.861 333.646 225.771C331.2 224.544 328.551 223.753 325.824 223.435C320.71 222.844 315.499 224.801 312.688 229.141C310.1 233.136 310.134 238.852 313.757 242.248C317.489 245.746 323.14 245.717 327.538 243.529C331.773 241.421 334.317 237.043 336.106 232.914C340.132 223.624 343.696 214.118 347.017 204.564C350.303 195.113 353.282 185.565 355.956 175.922C356.287 174.727 356.613 173.532 356.935 172.335C357.477 170.318 356.251 167.907 354.097 167.424C353.058 167.162 351.956 167.306 351.024 167.826C350.091 168.346 349.401 169.202 349.098 170.212Z" fill="#3F3D56"/>
<path d="M389.641 169.105L385.901 299.493C385.91 300.549 386.341 301.559 387.101 302.306C387.861 303.053 388.889 303.476 389.964 303.485C391.035 303.465 392.057 303.038 392.814 302.293C393.572 301.549 394.007 300.545 394.027 299.493L397.767 169.105C397.758 168.049 397.327 167.038 396.567 166.292C395.807 165.545 394.779 165.122 393.704 165.113C392.633 165.133 391.611 165.56 390.854 166.304C390.096 167.049 389.662 168.052 389.641 169.105Z" fill="#3F3D56"/>
<path d="M248.996 285.258H250.258V228.816H279.692V227.579H250.258V203.764H272.989C272.655 203.347 272.313 202.936 271.96 202.53H250.258V186.8C249.841 186.626 249.42 186.457 248.996 186.298V202.53H224.263V182.376C223.839 182.395 223.422 182.424 223.001 182.459V202.53H203.27V187.493C202.846 187.678 202.429 187.872 202.014 188.075V202.53H185.428V203.764H202.014V227.579H185.428V228.816H202.014V285.258H203.27V228.816C205.861 228.815 208.427 229.316 210.821 230.29C213.216 231.264 215.391 232.692 217.223 234.492C219.056 236.292 220.509 238.43 221.5 240.782C222.492 243.134 223.002 245.655 223.001 248.201V285.258H224.263V228.816H248.996V285.258ZM203.27 227.579V203.764H223.001V227.579H203.27ZM224.263 227.579V203.764H224.758C227.941 203.764 231.093 204.38 234.034 205.577C236.975 206.774 239.647 208.528 241.898 210.74C244.149 212.951 245.934 215.577 247.152 218.466C248.37 221.355 248.997 224.452 248.996 227.579H224.263Z" fill="black"/>
<path d="M241.291 268.334C239.702 275.295 235.898 281.578 230.428 286.271C230.027 286.612 229.626 286.942 229.209 287.267C228.196 287.357 227.19 287.45 226.192 287.544C225.363 287.618 224.545 287.698 223.732 287.772L223.586 287.788L223.483 286.915L223.071 283.381C221.474 280.819 220.484 277.937 220.174 274.948C219.865 271.959 220.244 268.94 221.283 266.115C222.713 262.325 225.303 258.977 227.849 255.656C231.366 251.068 234.784 246.533 234.909 240.939C236.639 243.114 238.077 245.498 239.189 248.034C238.14 248.519 237.198 249.2 236.415 250.04C236.193 250.28 235.971 250.615 236.122 250.903C236.252 251.148 236.577 251.206 236.859 251.238C237.536 251.307 238.219 251.376 238.896 251.446C239.438 251.504 239.98 251.557 240.522 251.616C241.177 253.729 241.622 255.901 241.849 258.099C242.214 261.518 242.026 264.973 241.291 268.334Z" fill="#3F3D56"/>
<path d="M259.278 254.384C256.081 256.667 254.212 259.951 252.76 263.571C251.272 264.038 249.934 264.878 248.876 266.008C248.654 266.248 248.432 266.583 248.583 266.871C248.713 267.115 249.038 267.174 249.32 267.206C249.997 267.275 250.68 267.344 251.357 267.413C249.905 271.693 248.572 276.121 246.004 279.735C244.297 282.121 242.07 284.105 239.487 285.542C238.782 285.937 238.055 286.29 237.309 286.601C234.557 286.809 231.857 287.031 229.209 287.267C228.196 287.357 227.19 287.45 226.192 287.544C225.363 287.618 224.545 287.698 223.732 287.772C223.726 287.48 223.726 287.187 223.732 286.894C223.903 279.096 226.823 271.598 231.994 265.678C232.238 265.401 232.487 265.13 232.742 264.859C235.361 262.11 238.442 259.823 241.849 258.099C247.218 255.356 253.235 254.074 259.278 254.384Z" fill="#00CCFF"/>
<path d="M227.129 284.813L226.506 286.623L226.192 287.544C225.363 287.618 224.545 287.698 223.732 287.772L223.586 287.788C222.686 287.879 221.792 287.969 220.898 288.06C220.665 287.794 220.432 287.522 220.205 287.245C214.55 280.518 211.835 271.865 212.655 263.177C213.474 254.489 217.76 246.473 224.577 240.88C223.862 244.558 224.696 248.082 226.067 251.579C225.921 251.637 225.78 251.696 225.644 251.76C224.596 252.245 223.653 252.926 222.87 253.766C222.648 254.006 222.426 254.341 222.578 254.629C222.708 254.873 223.033 254.932 223.315 254.964C223.992 255.033 224.675 255.102 225.352 255.171C225.894 255.23 226.435 255.283 226.977 255.342C227.232 255.368 227.486 255.395 227.741 255.422C227.779 255.501 227.811 255.576 227.849 255.656C229.393 258.945 231.057 262.25 231.994 265.678C232.229 266.538 232.413 267.411 232.547 268.292C232.964 271.268 232.693 274.299 231.756 277.159C230.818 280.019 229.236 282.635 227.129 284.813Z" fill="#00CCFF"/>
<path d="M281.663 207.614C276.999 198.676 269.773 191.156 261.275 185.63C252.749 180.111 242.966 176.75 232.798 175.847C231.465 175.728 230.128 175.658 228.789 175.638C227.206 175.615 203.398 182.361 195.422 187.87C187.451 193.312 180.894 200.519 176.28 208.909C171.674 217.345 169.408 226.823 169.71 236.392C170.105 246.017 172.836 255.411 177.676 263.79C182.45 272.142 189.228 279.221 197.421 284.413C205.73 289.622 214.078 303.434 223.889 303.921C233.774 304.412 245.048 291.384 254.063 287.428C263.079 283.439 270.873 277.199 276.669 269.328C282.301 261.616 285.945 252.676 287.288 243.275C288.682 233.65 288.032 223.724 284.686 214.525C283.828 212.161 282.818 209.853 281.663 207.614C280.699 205.748 277.873 205.061 276.104 206.182C275.192 206.733 274.532 207.609 274.261 208.626C273.989 209.643 274.127 210.724 274.646 211.644C275.212 212.739 275.739 213.853 276.225 214.985L275.816 214.031C277.658 218.383 278.91 222.953 279.541 227.624L279.396 226.563C280.067 231.632 280.055 236.765 279.36 241.83L279.506 240.769C278.803 245.833 277.427 250.786 275.413 255.499L275.822 254.545C274.786 256.95 273.578 259.279 272.208 261.517C271.513 262.647 270.776 263.751 269.997 264.828C269.655 265.301 269.302 265.765 268.946 266.229C268.483 266.833 269.579 265.439 269.099 266.032C269.018 266.133 268.937 266.234 268.855 266.335C268.609 266.637 268.359 266.937 268.106 267.233C266.417 269.213 264.573 271.061 262.593 272.76C262.099 273.183 261.598 273.597 261.088 274.001C260.834 274.202 260.583 274.412 260.318 274.6C260.328 274.592 261.174 273.961 260.673 274.328C260.516 274.443 260.36 274.56 260.202 274.674C259.151 275.439 258.072 276.165 256.965 276.853C254.417 278.43 251.744 279.803 248.971 280.958L249.941 280.555C245.159 282.534 240.132 283.885 234.99 284.575L236.07 284.432C230.931 285.115 225.723 285.124 220.582 284.459L221.662 284.602C216.989 283.985 212.418 282.771 208.066 280.991L209.036 281.393C206.515 280.347 204.085 279.103 201.768 277.672C200.621 276.962 199.505 276.209 198.418 275.411C198.263 275.298 198.109 275.182 197.954 275.068C197.458 274.7 198.311 275.339 198.318 275.343C198.029 275.14 197.752 274.923 197.486 274.692C196.961 274.272 196.444 273.842 195.936 273.403C193.901 271.642 192.001 269.737 190.251 267.702C189.813 267.194 189.384 266.677 188.964 266.153C188.783 265.926 188.452 265.466 189.184 266.435C189.087 266.307 188.987 266.182 188.89 266.056C188.657 265.751 188.426 265.445 188.199 265.136C187.403 264.054 186.647 262.946 185.93 261.811C184.31 259.243 182.896 256.554 181.701 253.77L182.111 254.723C180.156 250.153 178.819 245.351 178.134 240.439L178.279 241.5C177.661 236.973 177.653 232.385 178.253 227.855L178.108 228.917C178.723 224.53 179.924 220.242 181.681 216.164L181.271 217.118C182.376 214.565 183.679 212.099 185.169 209.743C185.915 208.563 186.706 207.413 187.541 206.291C187.731 206.036 187.922 205.783 188.116 205.531C188.292 205.303 188.775 204.736 187.951 205.738C188.032 205.64 188.11 205.539 188.189 205.439C188.647 204.869 189.117 204.308 189.598 203.755C191.417 201.663 193.387 199.702 195.494 197.889C196.026 197.431 196.567 196.982 197.116 196.543C197.366 196.343 197.617 196.146 197.87 195.951C197.971 195.872 198.073 195.796 198.174 195.717C197.092 196.563 197.873 195.947 198.119 195.766C199.251 194.933 200.413 194.142 201.606 193.392C204.256 191.726 207.045 190.283 209.942 189.076L208.971 189.479C213.175 187.744 231.802 183.651 235.19 184.098L234.11 183.955C239.089 184.638 243.956 185.959 248.586 187.885L247.615 187.482C249.961 188.461 252.242 189.586 254.442 190.851C255.541 191.484 256.619 192.152 257.675 192.854C258.174 193.186 258.669 193.526 259.158 193.873C259.403 194.046 259.646 194.222 259.888 194.399C260.022 194.498 260.155 194.597 260.289 194.696C260.852 195.111 259.514 194.096 260.104 194.554C262.079 196.079 263.955 197.724 265.721 199.479C266.588 200.347 267.426 201.242 268.233 202.165C268.647 202.638 269.053 203.119 269.45 203.606C269.648 203.848 270.32 204.724 269.496 203.651C269.697 203.913 269.901 204.174 270.1 204.438C271.812 206.715 273.332 209.125 274.646 211.644C275.617 213.506 278.431 214.2 280.205 213.076C281.117 212.525 281.778 211.65 282.049 210.632C282.321 209.615 282.182 208.534 281.663 207.614Z" fill="#3F3D56"/>
<path d="M234.317 272.76C233.898 272.779 233.482 272.671 233.128 272.45C232.773 272.23 232.496 271.907 232.334 271.527C232.172 271.146 232.133 270.726 232.222 270.323C232.311 269.92 232.525 269.553 232.833 269.273C232.885 269.072 232.922 268.927 232.973 268.725C232.955 268.681 232.936 268.637 232.918 268.594C231.032 264.177 219.002 276.489 218.482 280.64C218.253 282.474 218.349 284.334 218.767 286.137C214.871 277.786 212.847 268.709 212.834 259.522C212.833 257.217 212.964 254.913 213.225 252.622C213.44 250.744 213.74 248.879 214.122 247.028C216.211 236.982 220.695 227.567 227.207 219.554C230.931 219.759 234.195 219.201 234.51 212.111C234.566 210.849 235.518 209.757 235.728 208.515C235.373 208.56 235.011 208.589 234.656 208.612C234.545 208.618 234.428 208.623 234.318 208.629L234.276 208.631C233.885 208.648 233.498 208.554 233.16 208.36C232.823 208.166 232.549 207.88 232.373 207.537C232.197 207.194 232.126 206.808 232.168 206.426C232.21 206.044 232.363 205.682 232.61 205.384C232.763 205.198 232.917 205.012 233.07 204.827C233.304 204.541 233.543 204.26 233.776 203.974C233.803 203.947 233.828 203.918 233.851 203.888C234.12 203.562 234.388 203.241 234.656 202.914C234.166 202.168 233.508 201.543 232.732 201.088C230.045 199.542 226.339 200.613 224.398 203C222.451 205.388 222.084 208.738 222.76 211.721C223.425 214.26 224.525 216.668 226.012 218.844C225.866 219.028 225.715 219.205 225.569 219.388C222.906 222.753 220.584 226.366 218.638 230.176C219.189 225.951 212.455 210.691 209.852 207.459C206.724 203.577 200.31 205.271 199.759 210.193C199.754 210.24 199.749 210.288 199.744 210.335C200.13 210.55 200.509 210.777 200.879 211.018C201.345 211.323 201.705 211.76 201.914 212.27C202.122 212.78 202.169 213.341 202.048 213.877C201.927 214.414 201.644 214.903 201.235 215.278C200.827 215.654 200.313 215.9 199.759 215.984L199.703 215.993C194.526 223.255 211.122 242.156 215.276 237.912C213.321 243.356 212.095 249.026 211.628 254.781C211.363 258.176 211.379 261.586 211.674 264.979L211.657 264.859C210.734 257.47 194.899 246.484 190.275 247.399C187.611 247.926 184.987 247.806 185.392 250.446C185.398 250.488 185.405 250.53 185.412 250.572C186.129 250.859 186.828 251.19 187.504 251.563C187.891 251.777 188.269 252.005 188.64 252.245C189.105 252.551 189.466 252.987 189.674 253.498C189.883 254.008 189.93 254.568 189.809 255.105C189.687 255.642 189.404 256.13 188.996 256.506C188.587 256.882 188.073 257.128 187.52 257.212L187.463 257.22C187.422 257.226 187.387 257.232 187.347 257.237C184.99 265.203 202.466 278.059 213.091 273.969H213.096C214.149 278.464 215.675 282.839 217.648 287.024H233.91C233.968 286.847 234.02 286.663 234.073 286.486C232.568 286.579 231.057 286.49 229.573 286.223C230.78 284.768 231.986 283.302 233.193 281.848C233.22 281.821 233.245 281.792 233.269 281.762C233.881 281.018 234.498 280.279 235.11 279.535C235.143 277.253 234.876 274.975 234.317 272.76ZM215.696 236.773L215.704 236.761L215.696 236.784V236.773ZM212.094 268.672L211.954 268.363C211.96 268.14 211.96 267.916 211.954 267.687C211.954 267.624 211.942 267.561 211.942 267.498C211.995 267.894 212.041 268.289 212.1 268.684L212.094 268.672Z" fill="#3F3D56"/>
<path d="M51.6037 239.518C54.895 239.518 57.5632 236.896 57.5632 233.663C57.5632 230.429 54.895 227.808 51.6037 227.808C48.3123 227.808 45.6441 230.429 45.6441 233.663C45.6441 236.896 48.3123 239.518 51.6037 239.518Z" fill="#3F3D56"/>
<path d="M123.118 303.389C126.41 303.389 129.078 300.768 129.078 297.534C129.078 294.301 126.41 291.679 123.118 291.679C119.827 291.679 117.159 294.301 117.159 297.534C117.159 300.768 119.827 303.389 123.118 303.389Z" fill="#3F3D56"/>
<path d="M394.549 303.389C397.84 303.389 400.509 300.768 400.509 297.534C400.509 294.301 397.84 291.679 394.549 291.679C391.258 291.679 388.589 294.301 388.589 297.534C388.589 300.768 391.258 303.389 394.549 303.389Z" fill="#3F3D56"/>
<path d="M409.177 228.872C412.468 228.872 415.137 226.251 415.137 223.018C415.137 219.784 412.468 217.163 409.177 217.163C405.886 217.163 403.217 219.784 403.217 223.018C403.217 226.251 405.886 228.872 409.177 228.872Z" fill="#3F3D56"/>
<path d="M391.84 174.582C395.131 174.582 397.8 171.96 397.8 168.727C397.8 165.493 395.131 162.872 391.84 162.872C388.549 162.872 385.881 165.493 385.881 168.727C385.881 171.96 388.549 174.582 391.84 174.582Z" fill="#3F3D56"/>
<path d="M143.164 223.018C143.161 224.513 142.572 225.95 141.52 227.031C140.468 228.112 139.033 228.754 137.513 228.825C135.992 228.896 134.502 228.389 133.351 227.411C132.2 226.432 131.475 225.056 131.328 223.568C131.181 222.079 131.622 220.592 132.559 219.414C133.497 218.236 134.86 217.457 136.366 217.239C137.872 217.02 139.406 217.379 140.65 218.241C141.894 219.102 142.754 220.401 143.05 221.868C143.127 222.246 143.165 222.632 143.164 223.018Z" fill="#3F3D56"/>
<path d="M262.355 191.614C265.647 191.614 268.315 188.993 268.315 185.759C268.315 182.526 265.647 179.904 262.355 179.904C259.064 179.904 256.396 182.526 256.396 185.759C256.396 188.993 259.064 191.614 262.355 191.614Z" fill="#3F3D56"/>
<path d="M203.301 185.759C203.298 187.255 202.709 188.692 201.657 189.773C200.605 190.854 199.17 191.496 197.65 191.567C196.129 191.637 194.639 191.131 193.488 190.152C192.337 189.174 191.613 187.798 191.465 186.309C191.318 184.821 191.759 183.334 192.697 182.156C193.634 180.977 194.997 180.199 196.503 179.98C198.009 179.762 199.543 180.121 200.787 180.982C202.032 181.844 202.891 183.143 203.188 184.61C203.264 184.988 203.302 185.373 203.301 185.759Z" fill="#3F3D56"/>
<path d="M126.369 168.727C126.365 170.222 125.777 171.659 124.725 172.74C123.673 173.821 122.238 174.464 120.717 174.534C119.197 174.605 117.707 174.099 116.556 173.12C115.404 172.142 114.68 170.766 114.533 169.277C114.386 167.789 114.827 166.301 115.764 165.123C116.702 163.945 118.065 163.166 119.571 162.948C121.077 162.729 122.611 163.088 123.855 163.95C125.099 164.812 125.958 166.11 126.255 167.577C126.332 167.956 126.37 168.341 126.369 168.727Z" fill="#3F3D56"/>
<path d="M324.66 241.647C327.951 241.647 330.619 239.025 330.619 235.792C330.619 232.558 327.951 229.937 324.66 229.937C321.368 229.937 318.7 232.558 318.7 235.792C318.7 239.025 321.368 241.647 324.66 241.647Z" fill="#3F3D56"/>
<path d="M230.932 188.421C235.72 188.421 239.601 184.608 239.601 179.904C239.601 175.201 235.72 171.388 230.932 171.388C226.145 171.388 222.264 175.201 222.264 179.904C222.264 184.608 226.145 188.421 230.932 188.421Z" fill="#3F3D56"/>
<path d="M465.355 303.836L0.645081 304C0.560367 304 0.47648 303.984 0.398215 303.952C0.31995 303.92 0.248841 303.873 0.188939 303.814C0.129038 303.755 0.0815155 303.686 0.049097 303.609C0.0166784 303.532 0 303.449 0 303.366C0 303.283 0.0166784 303.201 0.049097 303.124C0.0815155 303.047 0.129038 302.977 0.188939 302.918C0.248841 302.859 0.31995 302.813 0.398215 302.781C0.47648 302.749 0.560367 302.732 0.645081 302.732L465.355 302.569C465.526 302.569 465.689 302.636 465.81 302.755C465.93 302.874 465.998 303.035 465.998 303.203C465.998 303.37 465.93 303.531 465.81 303.65C465.689 303.769 465.526 303.836 465.355 303.836Z" fill="#CACACA"/>
</svg>
