<svg width="16" height="18" viewBox="0 0 16 18" fill="none" xmlns="http://www.w3.org/2000/svg">
<path d="M8.00008 0.666656C4.09425 0.666656 0.916748 3.84416 0.916748 7.74999C0.916748 9.43166 1.5205 11.0637 2.62216 12.3533C2.748 12.4962 5.71675 15.8696 6.70842 16.815C7.0705 17.1604 7.53508 17.3333 8.00008 17.3333C8.46508 17.3333 8.92966 17.1604 9.29216 16.815C10.4451 15.7154 13.2605 12.4879 13.3838 12.3462C14.4797 11.0637 15.0834 9.43166 15.0834 7.74999C15.0834 3.84416 11.9059 0.666656 8.00008 0.666656ZM8.00008 9.83332C6.84967 9.83332 5.91675 8.90041 5.91675 7.74999C5.91675 6.59957 6.84967 5.66666 8.00008 5.66666C9.1505 5.66666 10.0834 6.59957 10.0834 7.74999C10.0834 8.90041 9.1505 9.83332 8.00008 9.83332Z" fill="#00CCFF"/>
</svg>
